<svg width="220" height="36" viewBox="0 0 220 36" fill="none" xmlns="http://www.w3.org/2000/svg">
<path d="M17.651 5.1856L35.2521 0L30.1163 17.651L35.2521 35.2521L17.651 30.1163L0 35.2521L5.1856 17.651L0 0L17.651 5.1856Z" fill="black"/>
<path d="M48.5723 30.6509V2.65088H59.6923C61.3989 2.65088 62.9189 2.99755 64.2523 3.69088C65.6123 4.35755 66.6656 5.31755 67.4123 6.57088C68.1856 7.79755 68.5723 9.27755 68.5723 11.0109V11.5309C68.5723 13.2642 68.1723 14.7575 67.3723 16.0109C66.5989 17.2642 65.5456 18.2242 64.2123 18.8909C62.8789 19.5575 61.3723 19.8909 59.6923 19.8909H52.8923V30.6509H48.5723ZM52.8923 15.9709H59.2523C60.7723 15.9709 61.9856 15.5709 62.8923 14.7709C63.7989 13.9709 64.2523 12.8775 64.2523 11.4909V11.0909C64.2523 9.67755 63.7989 8.57088 62.8923 7.77088C61.9856 6.97088 60.7723 6.57088 59.2523 6.57088H52.8923V15.9709Z" fill="black"/>
<path d="M81.487 31.2109C79.5136 31.2109 77.7536 30.8109 76.207 30.0109C74.687 29.1842 73.4869 28.0109 72.6069 26.4909C71.727 24.9709 71.287 23.1709 71.287 21.0909V20.4909C71.287 18.4109 71.727 16.6242 72.6069 15.1309C73.4869 13.6109 74.687 12.4375 76.207 11.6109C77.7536 10.7842 79.5136 10.3709 81.487 10.3709C83.4603 10.3709 85.2203 10.7842 86.767 11.6109C88.3136 12.4375 89.527 13.6109 90.407 15.1309C91.2869 16.6242 91.727 18.4109 91.727 20.4909V21.0909C91.727 23.1709 91.2869 24.9709 90.407 26.4909C89.527 28.0109 88.3136 29.1842 86.767 30.0109C85.2203 30.8109 83.4603 31.2109 81.487 31.2109ZM81.487 27.5309C83.3003 27.5309 84.7669 26.9575 85.8869 25.8109C87.0336 24.6375 87.6069 23.0242 87.6069 20.9709V20.6109C87.6069 18.5575 87.047 16.9575 85.927 15.8109C84.807 14.6375 83.327 14.0509 81.487 14.0509C79.7003 14.0509 78.2336 14.6375 77.087 15.8109C75.9669 16.9575 75.407 18.5575 75.407 20.6109V20.9709C75.407 23.0242 75.9669 24.6375 77.087 25.8109C78.2336 26.9575 79.7003 27.5309 81.487 27.5309Z" fill="black"/>
<path d="M104.936 31.2109C102.43 31.2109 100.35 30.6509 98.6963 29.5309C97.043 28.4109 96.0297 26.7175 95.6563 24.4509L99.4963 23.5309C99.7097 24.6242 100.07 25.4909 100.576 26.1309C101.083 26.7709 101.71 27.2242 102.456 27.4909C103.23 27.7575 104.056 27.8909 104.936 27.8909C106.243 27.8909 107.243 27.6375 107.936 27.1309C108.656 26.6242 109.016 25.9709 109.016 25.1709C109.016 24.3709 108.683 23.7842 108.016 23.4109C107.35 23.0375 106.363 22.7309 105.056 22.4909L103.696 22.2509C102.363 22.0109 101.15 21.6642 100.056 21.2109C98.963 20.7575 98.0963 20.1309 97.4563 19.3309C96.8163 18.5309 96.4963 17.5042 96.4963 16.2509C96.4963 14.3842 97.1897 12.9442 98.5763 11.9309C99.963 10.8909 101.803 10.3709 104.096 10.3709C106.31 10.3709 108.123 10.8775 109.536 11.8909C110.976 12.8775 111.91 14.2242 112.336 15.9309L108.496 17.0109C108.256 15.8109 107.75 14.9709 106.976 14.4909C106.203 13.9842 105.243 13.7309 104.096 13.7309C102.976 13.7309 102.096 13.9442 101.456 14.3709C100.816 14.7709 100.496 15.3442 100.496 16.0909C100.496 16.8909 100.803 17.4775 101.416 17.8509C102.056 18.2242 102.91 18.5042 103.976 18.6909L105.376 18.9309C106.79 19.1709 108.083 19.5042 109.256 19.9309C110.43 20.3575 111.35 20.9709 112.016 21.7709C112.71 22.5709 113.056 23.6375 113.056 24.9709C113.056 26.9442 112.323 28.4775 110.856 29.5709C109.39 30.6642 107.416 31.2109 104.936 31.2109Z" fill="black"/>
<path d="M117.872 30.6509V10.9309H121.992V30.6509H117.872ZM119.952 8.25088C119.152 8.25088 118.472 7.99755 117.912 7.49088C117.379 6.95755 117.112 6.27755 117.112 5.45088C117.112 4.62421 117.379 3.95755 117.912 3.45088C118.472 2.91755 119.152 2.65088 119.952 2.65088C120.779 2.65088 121.459 2.91755 121.992 3.45088C122.525 3.95755 122.792 4.62421 122.792 5.45088C122.792 6.27755 122.525 6.95755 121.992 7.49088C121.459 7.99755 120.779 8.25088 119.952 8.25088Z" fill="black"/>
<path d="M135.506 30.6509C134.306 30.6509 133.346 30.2909 132.626 29.5709C131.933 28.8509 131.586 27.8909 131.586 26.6909V14.4109H126.146V10.9309H131.586V4.41088H135.706V10.9309H141.586V14.4109H135.706V25.9709C135.706 26.7709 136.08 27.1709 136.826 27.1709H140.946V30.6509H135.506Z" fill="black"/>
<path d="M146.427 30.6509V10.9309H150.547V30.6509H146.427ZM148.507 8.25088C147.707 8.25088 147.027 7.99755 146.467 7.49088C145.933 6.95755 145.667 6.27755 145.667 5.45088C145.667 4.62421 145.933 3.95755 146.467 3.45088C147.027 2.91755 147.707 2.65088 148.507 2.65088C149.333 2.65088 150.013 2.91755 150.547 3.45088C151.08 3.95755 151.347 4.62421 151.347 5.45088C151.347 6.27755 151.08 6.95755 150.547 7.49088C150.013 7.99755 149.333 8.25088 148.507 8.25088Z" fill="black"/>
<path d="M161.221 30.6509L154.581 10.9309H158.941L164.181 27.6109H164.821L170.061 10.9309H174.421L167.781 30.6509H161.221Z" fill="black"/>
<path d="M185.979 31.0109C184.486 31.0109 183.152 30.6775 181.979 30.0109C180.805 29.3442 179.885 28.3975 179.219 27.1709C178.552 25.9442 178.219 24.4775 178.219 22.7709V10.9309H182.339V22.4909C182.339 24.1975 182.766 25.4642 183.619 26.2909C184.472 27.0909 185.659 27.4909 187.179 27.4909C188.859 27.4909 190.205 26.9309 191.219 25.8109C192.259 24.6642 192.779 23.0242 192.779 20.8909V10.9309H196.899V30.6509H192.859V27.6909H192.219C191.845 28.4909 191.179 29.2509 190.219 29.9709C189.259 30.6642 187.846 31.0109 185.979 31.0109Z" fill="black"/>
<path d="M211.069 31.2109C208.562 31.2109 206.482 30.6509 204.829 29.5309C203.176 28.4109 202.162 26.7175 201.789 24.4509L205.629 23.5309C205.842 24.6242 206.202 25.4909 206.709 26.1309C207.216 26.7709 207.842 27.2242 208.589 27.4909C209.362 27.7575 210.189 27.8909 211.069 27.8909C212.376 27.8909 213.376 27.6375 214.069 27.1309C214.789 26.6242 215.149 25.9709 215.149 25.1709C215.149 24.3709 214.816 23.7842 214.149 23.4109C213.482 23.0375 212.496 22.7309 211.189 22.4909L209.829 22.2509C208.496 22.0109 207.282 21.6642 206.189 21.2109C205.096 20.7575 204.229 20.1309 203.589 19.3309C202.949 18.5309 202.629 17.5042 202.629 16.2509C202.629 14.3842 203.322 12.9442 204.709 11.9309C206.096 10.8909 207.936 10.3709 210.229 10.3709C212.442 10.3709 214.256 10.8775 215.669 11.8909C217.109 12.8775 218.042 14.2242 218.469 15.9309L214.629 17.0109C214.389 15.8109 213.882 14.9709 213.109 14.4909C212.336 13.9842 211.376 13.7309 210.229 13.7309C209.109 13.7309 208.229 13.9442 207.589 14.3709C206.949 14.7709 206.629 15.3442 206.629 16.0909C206.629 16.8909 206.936 17.4775 207.549 17.8509C208.189 18.2242 209.042 18.5042 210.109 18.6909L211.509 18.9309C212.922 19.1709 214.216 19.5042 215.389 19.9309C216.562 20.3575 217.482 20.9709 218.149 21.7709C218.842 22.5709 219.189 23.6375 219.189 24.9709C219.189 26.9442 218.456 28.4775 216.989 29.5709C215.522 30.6642 213.549 31.2109 211.069 31.2109Z" fill="black"/>
</svg>
